<?xml version="1.0" encoding="UTF-8" standalone="no"?>
<!-- Created with Inkscape (http://www.inkscape.org/) -->

<svg
   xmlns:dc="http://purl.org/dc/elements/1.1/"
   xmlns:cc="http://creativecommons.org/ns#"
   xmlns:rdf="http://www.w3.org/1999/02/22-rdf-syntax-ns#"
   xmlns:svg="http://www.w3.org/2000/svg"
   xmlns="http://www.w3.org/2000/svg"
   xmlns:sodipodi="http://sodipodi.sourceforge.net/DTD/sodipodi-0.dtd"
   xmlns:inkscape="http://www.inkscape.org/namespaces/inkscape"
   width="45.999718mm"
   height="45.999958mm"
   viewBox="0 0 45.999718 45.999958"
   version="1.1"
   id="svg8"
   inkscape:version="0.92.2 5c3e80d, 2017-08-06"
   sodipodi:docname="caseInsensitive.svg">
  <defs
     id="defs2" />
  <sodipodi:namedview
     id="base"
     pagecolor="#ffffff"
     bordercolor="#666666"
     borderopacity="1.0"
     inkscape:pageopacity="0.0"
     inkscape:pageshadow="2"
     inkscape:zoom="2.8284271"
     inkscape:cx="77.012994"
     inkscape:cy="71.676334"
     inkscape:document-units="mm"
     inkscape:current-layer="layer1"
     showgrid="false"
     showguides="true"
     inkscape:guide-bbox="true"
     inkscape:window-width="1920"
     inkscape:window-height="1175"
     inkscape:window-x="0"
     inkscape:window-y="0"
     inkscape:window-maximized="1">
    <sodipodi:guide
       position="-2.0001413,47.99996"
       orientation="1,0"
       id="guide3699"
       inkscape:locked="false"
       inkscape:label=""
       inkscape:color="rgb(0,0,255)" />
    <sodipodi:guide
       position="47.999857,47.99996"
       orientation="1,0"
       id="guide3701"
       inkscape:locked="false"
       inkscape:label=""
       inkscape:color="rgb(0,0,255)" />
    <sodipodi:guide
       position="-2.0001413,-2.0000384"
       orientation="0,1"
       id="guide3703"
       inkscape:locked="false"
       inkscape:label=""
       inkscape:color="rgb(0,0,255)" />
    <sodipodi:guide
       position="-2.0001413,47.99996"
       orientation="0,1"
       id="guide3705"
       inkscape:locked="false"
       inkscape:label=""
       inkscape:color="rgb(0,0,255)" />
    <sodipodi:guide
       position="0.99985866,39.766331"
       orientation="1,0"
       id="guide3707"
       inkscape:locked="false"
       inkscape:label=""
       inkscape:color="rgb(0,0,255)" />
    <sodipodi:guide
       position="44.999858,31.356361"
       orientation="1,0"
       id="guide3709"
       inkscape:locked="false"
       inkscape:label=""
       inkscape:color="rgb(0,0,255)" />
    <sodipodi:guide
       position="31.356256,0.99996156"
       orientation="0,1"
       id="guide3711"
       inkscape:locked="false"
       inkscape:label=""
       inkscape:color="rgb(0,0,255)" />
    <sodipodi:guide
       position="22.757299,44.999961"
       orientation="0,1"
       id="guide3713"
       inkscape:locked="false"
       inkscape:label=""
       inkscape:color="rgb(0,0,255)" />
    <sodipodi:guide
       position="22.999859,40.238802"
       orientation="1,0"
       id="guide3715"
       inkscape:locked="false"
       inkscape:label=""
       inkscape:color="rgb(0,0,255)" />
    <sodipodi:guide
       position="11.999859,34.285676"
       orientation="1,0"
       id="guide3717"
       inkscape:locked="false"
       inkscape:label=""
       inkscape:color="rgb(0,0,255)" />
    <sodipodi:guide
       position="33.999858,37.781956"
       orientation="1,0"
       id="guide3719"
       inkscape:locked="false"
       inkscape:label=""
       inkscape:color="rgb(0,0,255)" />
    <sodipodi:guide
       position="18.410573,22.999639"
       orientation="0,1"
       id="guide3721"
       inkscape:locked="false"
       inkscape:label=""
       inkscape:color="rgb(0,0,255)" />
  </sodipodi:namedview>
  <metadata
     id="metadata5">
    <rdf:RDF>
      <cc:Work
         rdf:about="">
        <dc:format>image/svg+xml</dc:format>
        <dc:type
           rdf:resource="http://purl.org/dc/dcmitype/StillImage" />
        <dc:title></dc:title>
      </cc:Work>
    </rdf:RDF>
  </metadata>
  <g
     inkscape:label="Layer 1"
     inkscape:groupmode="layer"
     id="layer1"
     transform="translate(-2.0001414,-249)">
    <g
       aria-label="aa"
       transform="matrix(0.26458333,0,0,0.26458333,2.0001414,249)"
       style="font-style:normal;font-weight:normal;font-size:120px;line-height:125%;font-family:'Bitstream Vera Sans';text-align:center;letter-spacing:0px;word-spacing:0px;writing-mode:lr-tb;text-anchor:middle;fill:#000000;fill-opacity:1;stroke:none;stroke-width:1px;stroke-linecap:butt;stroke-linejoin:miter;stroke-opacity:1"
       id="flowRoot1088">
      <path
         sodipodi:type="inkscape:offset"
         inkscape:radius="0"
         inkscape:original="M 47.669922 57.197266 C 44.154297 57.197266 40.542969 57.587891 36.832031 58.369141 C 33.121093 59.111328 29.292968 60.244141 25.347656 61.767578 L 25.347656 71.728516 C 28.628906 69.93164 32.046875 68.583984 35.601562 67.685547 C 39.15625 66.78711 42.806641 66.337891 46.556641 66.337891 C 52.455078 66.337891 57.027343 67.705078 60.269531 70.439453 C 63.550781 73.134766 65.191406 76.962891 65.191406 81.923828 L 65.191406 82.978516 L 50.072266 82.978516 C 40.267578 82.978516 32.886719 84.853516 27.925781 88.603516 C 23.003906 92.353516 20.541016 97.919925 20.541016 105.30273 C 20.541016 111.63086 22.515625 116.68945 26.460938 120.47852 C 30.445312 124.22852 35.794922 126.10352 42.513672 126.10352 C 47.826172 126.10352 52.320312 125.16602 55.992188 123.29102 C 59.664062 121.37695 62.730468 118.42773 65.191406 114.44336 L 65.191406 124.4043 L 75.972656 124.4043 L 75.972656 86.962891 C 75.972656 76.962891 73.628906 69.501953 68.941406 64.580078 C 64.253906 59.658203 57.16211 57.197266 47.669922 57.197266 z M 121.26562 57.197266 C 117.75 57.197266 114.13477 57.587891 110.42383 58.369141 C 106.71289 59.111328 102.88672 60.244141 98.941406 61.767578 L 98.941406 71.728516 C 102.22265 69.93164 105.64062 68.583984 109.19531 67.685547 C 112.75 66.78711 116.40234 66.337891 120.15234 66.337891 C 126.05078 66.337891 130.61914 67.705078 133.86133 70.439453 C 137.14258 73.134766 138.78516 76.962891 138.78516 81.923828 L 138.78516 82.978516 L 123.66602 82.978516 C 113.86133 82.978516 106.47852 84.853516 101.51758 88.603516 C 96.595706 92.353516 94.134766 97.919925 94.134766 105.30273 C 94.134766 111.63086 96.107422 116.68945 100.05273 120.47852 C 104.03711 124.22852 109.39062 126.10352 116.10938 126.10352 C 121.42187 126.10352 125.91211 125.16602 129.58398 123.29102 C 133.25586 121.37695 136.32422 118.42773 138.78516 114.44336 L 138.78516 124.4043 L 149.56641 124.4043 L 149.56641 86.962891 C 149.56641 76.962891 147.22266 69.501953 142.53516 64.580078 C 137.84766 59.658203 130.75781 57.197266 121.26562 57.197266 z M 54.466797 91.416016 L 65.191406 91.416016 L 65.191406 93.818359 C 65.191406 100.84961 63.375 106.49414 59.742188 110.75195 C 56.148438 114.97071 51.361328 117.08008 45.384766 117.08008 C 41.048828 117.08008 37.611328 115.9668 35.072266 113.74023 C 32.572266 111.47461 31.322266 108.42774 31.322266 104.59961 C 31.322266 99.794921 33.003906 96.396484 36.363281 94.404297 C 39.722656 92.41211 45.75586 91.416016 54.466797 91.416016 z M 128.06055 91.416016 L 138.78516 91.416016 L 138.78516 93.818359 C 138.78516 100.84961 136.9668 106.49414 133.33398 110.75195 C 129.74024 114.97071 124.95508 117.08008 118.97852 117.08008 C 114.64258 117.08008 111.20508 115.9668 108.66602 113.74023 C 106.16602 111.47461 104.91602 108.42774 104.91602 104.59961 C 104.91602 99.794921 106.5957 96.396484 109.95508 94.404297 C 113.31446 92.41211 119.34961 91.416016 128.06055 91.416016 z "
         id="path1138"
         d="m 47.669922,57.197266 c -3.515625,0 -7.126953,0.390625 -10.837891,1.171875 -3.710938,0.742187 -7.539063,1.875 -11.484375,3.398437 v 9.960938 c 3.28125,-1.796876 6.699219,-3.144532 10.253906,-4.042969 3.554688,-0.898437 7.205079,-1.347656 10.955079,-1.347656 5.898437,0 10.470702,1.367187 13.71289,4.101562 3.28125,2.695313 4.921875,6.523438 4.921875,11.484375 v 1.054688 h -15.11914 c -9.804688,0 -17.185547,1.875 -22.146485,5.625 -4.921875,3.75 -7.384765,9.316409 -7.384765,16.699214 0,6.32813 1.974609,11.38672 5.919922,15.17579 3.984374,3.75 9.333984,5.625 16.052734,5.625 5.3125,0 9.80664,-0.9375 13.478516,-2.8125 3.671874,-1.91407 6.73828,-4.86329 9.199218,-8.84766 v 9.96094 h 10.78125 V 86.962891 c 0,-10 -2.34375,-17.460938 -7.03125,-22.382813 -4.6875,-4.921875 -11.779296,-7.382812 -21.271484,-7.382812 z m 73.595698,0 c -3.51562,0 -7.13085,0.390625 -10.84179,1.171875 -3.71094,0.742187 -7.53711,1.875 -11.482424,3.398437 v 9.960938 c 3.281244,-1.796876 6.699214,-3.144532 10.253904,-4.042969 3.55469,-0.898437 7.20703,-1.347656 10.95703,-1.347656 5.89844,0 10.4668,1.367187 13.70899,4.101562 3.28125,2.695313 4.92383,6.523438 4.92383,11.484375 v 1.054688 h -15.11914 c -9.80469,0 -17.1875,1.875 -22.14844,5.625 -4.921874,3.75 -7.382814,9.316409 -7.382814,16.699214 0,6.32813 1.972656,11.38672 5.917964,15.17579 3.98438,3.75 9.33789,5.625 16.05665,5.625 5.31249,0 9.80273,-0.9375 13.4746,-2.8125 3.67188,-1.91407 6.74024,-4.86329 9.20118,-8.84766 v 9.96094 h 10.78125 V 86.962891 c 0,-10 -2.34375,-17.460938 -7.03125,-22.382813 -4.6875,-4.921875 -11.77735,-7.382812 -21.26954,-7.382812 z m -66.798823,34.21875 h 10.724609 v 2.402343 c 0,7.031251 -1.816406,12.675781 -5.449218,16.933591 -3.59375,4.21876 -8.38086,6.32813 -14.357422,6.32813 -4.335938,0 -7.773438,-1.11328 -10.3125,-3.33985 -2.5,-2.26562 -3.75,-5.31249 -3.75,-9.14062 0,-4.804689 1.68164,-8.203126 5.041015,-10.195313 3.359375,-1.992187 9.392579,-2.988281 18.103516,-2.988281 z m 73.593753,0 h 10.72461 v 2.402343 c 0,7.031251 -1.81836,12.675781 -5.45118,16.933591 -3.59374,4.21876 -8.3789,6.32813 -14.35546,6.32813 -4.33594,0 -7.77344,-1.11328 -10.3125,-3.33985 -2.5,-2.26562 -3.75,-5.31249 -3.75,-9.14062 0,-4.804689 1.67968,-8.203126 5.03906,-10.195313 3.35938,-1.992187 9.39453,-2.988281 18.10547,-2.988281 z" />
    </g>
  </g>
</svg>
